<svg width="54" height="55" viewBox="0 0 54 55" fill="none" xmlns="http://www.w3.org/2000/svg">
<path d="M3.9375 6.30209C3.00552 6.30209 2.25 7.04412 2.25 7.95946C2.25 8.8748 3.00552 9.61683 3.9375 9.61683H7.29501L18.1207 36.1978C18.377 36.827 18.9974 37.2396 19.6875 37.2396H42.1875C42.9046 37.2396 43.5434 36.7944 43.7803 36.1297L45.7472 30.6101H29.8125C28.8806 30.6101 28.125 29.8681 28.125 28.9528C28.125 28.0374 28.8806 27.2954 29.8125 27.2954H46.9285L48.5035 22.8758H24.1875C23.2556 22.8758 22.5 22.1337 22.5 21.2184C22.5 20.303 23.2556 19.561 24.1875 19.561H49.6847L51.6553 14.0315C51.836 13.5245 51.7553 12.9631 51.4388 12.525C51.1224 12.0869 50.6094 11.8266 50.0625 11.8266H11.8299L10.0043 7.34393C9.74804 6.7147 9.12753 6.30209 8.4375 6.30209H3.9375Z" fill="#D06325"/>
<path d="M28.125 44.1146C28.125 46.6458 26.1102 48.6979 23.625 48.6979C21.1398 48.6979 19.125 46.6458 19.125 44.1146C19.125 41.5833 21.1398 39.5312 23.625 39.5312C26.1102 39.5312 28.125 41.5833 28.125 44.1146Z" fill="#D06325"/>
<path d="M39.375 48.6979C41.8602 48.6979 43.875 46.6458 43.875 44.1146C43.875 41.5833 41.8602 39.5312 39.375 39.5312C36.8898 39.5312 34.875 41.5833 34.875 44.1146C34.875 46.6458 36.8898 48.6979 39.375 48.6979Z" fill="#D06325"/>
</svg>
