<svg xmlns="http://www.w3.org/2000/svg" width="161" height="160" viewBox="0 0 161 160" fill="none">
  <path d="M80.0009 0C35.8164 0 0 35.816 0 80C0 124.184 35.8164 160 80.0009 160C124.185 160 160.002 124.184 160.002 80C160.002 35.816 124.185 0 80.0009 0ZM80.0009 22C94.3611 22 106.001 33.64 106.001 48C106.001 62.36 94.3611 74 80.0009 74C65.6408 74 54.0006 62.36 54.0006 48C54.0006 33.64 65.6408 22 80.0009 22ZM80.0009 144C60.4967 144 43.0325 135.272 31.2964 121.504C28.2483 117.928 28.9283 112.56 32.6804 109.736C44.8165 100.608 66.9288 96 80.0009 96C93.0731 96 115.185 100.608 127.329 109.736C131.082 112.56 131.762 117.936 128.714 121.504C116.969 135.272 99.5052 144 80.0009 144Z" fill="#D9D9D9"/>
</svg>