<svg width="24" height="13" viewBox="0 0 24 13" fill="none" xmlns="http://www.w3.org/2000/svg">
<path d="M2.72243 0.702962C3.00241 0.700117 3.27344 0.734699 3.53552 0.806706C3.7976 0.878714 4.03225 1.007 4.23947 1.19157C4.35222 1.2651 4.50287 1.39424 4.69143 1.579C4.86132 1.76395 5.10653 2.01348 5.42707 2.32757C6.08833 3.10489 6.78655 3.8445 7.52172 4.5464C8.2567 5.22964 9.02882 5.89383 9.83808 6.53897C10.1017 6.76031 10.3746 6.98155 10.6569 7.20269C10.9391 7.42383 11.2302 7.59822 11.5302 7.72584C11.8302 7.85347 12.1482 7.91558 12.4842 7.91216C12.82 7.89008 13.1639 7.74658 13.5158 7.48166C14.1644 7.00838 14.7847 6.50738 15.3767 5.97868C15.9687 5.44997 16.5509 4.88402 17.1235 4.28084C17.4932 3.9224 17.8536 3.56406 18.2047 3.2058C18.5555 2.82889 18.9066 2.47064 19.2578 2.13105C19.7012 1.67852 20.1744 1.40303 20.6775 1.30458C21.1618 1.20633 21.5916 1.24863 21.9668 1.43149C22.342 1.61436 22.6158 1.91959 22.7882 2.34719C22.9603 2.75613 22.9374 3.25106 22.7192 3.83197C22.5916 4.13195 22.4172 4.42307 22.1961 4.70533C21.9936 4.9874 21.763 5.26043 21.5044 5.5244C21.227 5.78857 20.9496 6.0434 20.6721 6.2889C20.3946 6.5344 20.1355 6.76104 19.895 6.96883C16.0668 10.5172 13.5274 12.2978 12.2768 12.3105C11.3249 12.3202 9.93671 11.6529 8.11229 10.3087C7.45368 9.7927 6.7665 9.22098 6.05076 8.59356C5.31635 7.96632 4.59051 7.26432 3.87325 6.48757C3.38301 6.00719 2.90201 5.51739 2.43025 5.01815C1.93963 4.50044 1.5232 3.93531 1.18096 3.32276C1.04765 3.06276 0.988805 2.78335 1.00444 2.48451C1.00121 2.16719 1.07294 1.87711 1.21961 1.61428C1.34761 1.35163 1.54142 1.13498 1.80103 0.964335C2.06065 0.793689 2.36778 0.706565 2.72243 0.702962Z" fill="black"/>
</svg>
