<svg xmlns="http://www.w3.org/2000/svg" width="35" height="35" viewBox="0 0 54 55" fill="none">
  <rect width="30" height="30" fill="#D06325"/>
  <path d="M3.9375 6.30225C3.00552 6.30225 2.25 7.04428 2.25 7.95961C2.25 8.87495 3.00552 9.61698 3.9375 9.61698H7.29501L18.1207 36.198C18.377 36.8271 18.9974 37.2397 19.6875 37.2397H42.1875C42.9046 37.2397 43.5434 36.7946 43.7803 36.1299L45.7472 30.6103H29.8125C28.8806 30.6103 28.125 29.8683 28.125 28.953C28.125 28.0376 28.8806 27.2955 29.8125 27.2955H46.9285L48.5035 22.8759H24.1875C23.2556 22.8759 22.5 22.1339 22.5 21.2186C22.5 20.3032 23.2556 19.5611 24.1875 19.5611H49.6847L51.6553 14.0317C51.836 13.5247 51.7553 12.9632 51.4388 12.5252C51.1224 12.0871 50.6094 11.8268 50.0625 11.8268H11.8299L10.0043 7.34408C9.74804 6.71485 9.12753 6.30225 8.4375 6.30225H3.9375Z" fill="white"/>
  <path d="M28.125 44.1146C28.125 46.6458 26.1102 48.6979 23.625 48.6979C21.1398 48.6979 19.125 46.6458 19.125 44.1146C19.125 41.5833 21.1398 39.5312 23.625 39.5312C26.1102 39.5312 28.125 41.5833 28.125 44.1146Z" fill="white"/>
  <path d="M39.375 48.6979C41.8602 48.6979 43.875 46.6458 43.875 44.1146C43.875 41.5833 41.8602 39.5312 39.375 39.5312C36.8898 39.5312 34.875 41.5833 34.875 44.1146C34.875 46.6458 36.8898 48.6979 39.375 48.6979Z" fill="white"/>
</svg>