<svg width="35" height="35" viewBox="0 0 57 57" fill="none" xmlns="http://www.w3.org/2000/svg">
<path d="M49.875 10.6875H7.125C6.18017 10.6875 5.27403 11.0628 4.60593 11.7309C3.93783 12.399 3.5625 13.3052 3.5625 14.25V42.75C3.5625 43.6948 3.93783 44.601 4.60593 45.2691C5.27403 45.9372 6.18017 46.3125 7.125 46.3125H49.875C50.8198 46.3125 51.726 45.9372 52.3941 45.2691C53.0622 44.601 53.4375 43.6948 53.4375 42.75V14.25C53.4375 13.3052 53.0622 12.399 52.3941 11.7309C51.726 11.0628 50.8198 10.6875 49.875 10.6875ZM49.875 14.25V19.5937H7.125V14.25H49.875ZM49.875 42.75H7.125V23.1562H49.875V42.75ZM46.3125 37.4062C46.3125 37.8787 46.1248 38.3317 45.7908 38.6658C45.4567 38.9998 45.0037 39.1875 44.5312 39.1875H37.4062C36.9338 39.1875 36.4808 38.9998 36.1467 38.6658C35.8127 38.3317 35.625 37.8787 35.625 37.4062C35.625 36.9338 35.8127 36.4808 36.1467 36.1467C36.4808 35.8127 36.9338 35.625 37.4062 35.625H44.5312C45.0037 35.625 45.4567 35.8127 45.7908 36.1467C46.1248 36.4808 46.3125 36.9338 46.3125 37.4062ZM32.0625 37.4062C32.0625 37.8787 31.8748 38.3317 31.5408 38.6658C31.2067 38.9998 30.7537 39.1875 30.2812 39.1875H26.7187C26.2463 39.1875 25.7933 38.9998 25.4592 38.6658C25.1252 38.3317 24.9375 37.8787 24.9375 37.4062C24.9375 36.9338 25.1252 36.4808 25.4592 36.1467C25.7933 35.8127 26.2463 35.625 26.7187 35.625H30.2812C30.7537 35.625 31.2067 35.8127 31.5408 36.1467C31.8748 36.4808 32.0625 36.9338 32.0625 37.4062Z" fill="#D06325"/>
</svg>
