<svg width="30" height="30" viewBox="0 0 38 101" fill="none" xmlns="http://www.w3.org/2000/svg">
<g clip-path="url(#clip0_11_2918)">
<path d="M34.36 20.6525H3.74797C3.74797 20.6525 1.23997 21.6315 0.964966 23.4355V65.8815H5.85797V47.5945H9.71197L9.61897 100.959H16.224L17.05 76.4325H21.056L21.883 100.959H28.488L28.396 47.5945H32.25V65.8825H37.143V23.4365C36.867 21.6315 34.36 20.6525 34.36 20.6525Z" fill="black"/>
<path d="M19.054 17.1365C14.589 17.1365 10.95 13.5275 10.95 9.04753C10.949 4.55153 14.589 0.958527 19.054 0.958527C23.533 0.958527 27.158 4.55153 27.158 9.04753C27.158 13.5265 23.533 17.1365 19.054 17.1365Z" fill="black"/>
</g>
<defs>
<clipPath id="clip0_11_2918">
<rect width="36.178" height="100" fill="white" transform="translate(0.964966 0.958527)"/>
</clipPath>
</defs>
</svg>
