<svg width="24" height="24" viewBox="0 0 24 24" fill="none" xmlns="http://www.w3.org/2000/svg">
<path d="M15.5 6.5C15.5 8.433 13.933 10 12 10C10.067 10 8.49999 8.433 8.49999 6.5C8.49999 4.567 10.067 3 12 3C13.933 3 15.5 4.567 15.5 6.5Z" stroke="#19191C" stroke-width="1.5"/>
<path d="M5.42413 17.4898C5.76693 15.1147 7.60566 13.1739 9.99898 12.9995C11.3664 12.8999 12.6383 12.8997 14.0031 12.999C16.3955 13.1729 18.2329 15.1137 18.5756 17.4878L18.6422 17.9495C18.8397 19.3178 17.8892 20.595 16.5146 20.7424C13.2884 21.0883 10.7221 21.0843 7.4912 20.7397C6.11444 20.5928 5.16075 19.3146 5.35854 17.9442L5.42413 17.4898Z" stroke="#19191C" stroke-width="1.5"/>
</svg>
