<svg width="30" height="30" viewBox="0 0 47 101" fill="none" xmlns="http://www.w3.org/2000/svg">
<g clip-path="url(#clip0_11_3214)">
<path d="M23.4914 17.1935C19.0074 17.1935 15.3734 13.5755 15.3734 9.08353C15.3734 4.60753 19.0064 0.958527 23.4914 0.958527C27.9834 0.958527 31.6164 4.60753 31.6164 9.08353C31.6164 13.5755 27.9834 17.1935 23.4914 17.1935Z" fill="black"/>
<path d="M31.3714 35.6975L43.4974 58.2485L46.3944 56.2865L33.8854 20.4435H23.9054H23.4914H23.0774H13.0974L0.587402 56.2855L3.4844 58.2475L15.6104 35.6965C15.6104 35.6965 17.1434 35.6965 17.1434 39.6055L3.9904 71.1255H16.5004L20.5474 100.959H23.0764H23.4904H23.9044H26.4334L30.4804 71.1245H42.9894L29.8374 39.6065C29.8374 35.6975 31.3714 35.6975 31.3714 35.6975Z" fill="black"/>
</g>
<defs>
<clipPath id="clip0_11_3214">
<rect width="45.807" height="100" fill="white" transform="translate(0.587402 0.958527)"/>
</clipPath>
</defs>
</svg>
